<svg class="d-block" xmlns="http://www.w3.org/2000/svg" width="36" height="36" viewBox="0 0 612 612" role="img" focusable="false">
  <title>Chocorp</title>
  <path fill="#4CAF50" d="M0 0 L612 0 L612 612 L0 612 Z"></path>
  <path fill="white" d="M510 8a94.3 94.3 0 0 1 94 94v408a94.3 94.3 0 0 1-94 94H102a94.3 94.3 0 0 1-94-94V102a94.3 94.3 0 0 1 94-94h408m0-8H102C45.9 0 0 45.9 0 102v408c0 56.1 45.9 102 102 102h408c56.1 0 102-45.9 102-102V102C612 45.9 566.1 0 510 0z"></path>
  <path fill="white" d="M 493 373 A 200 200 0 1 1 493 237"></path>
  <path fill="#4CAF50" d="M 448 357 A 152 152 0 1 1 448 253"></path>
  <path fill="#4CAF50" d="M 493 237 L 306 306 L 493 359"></path>
</svg>