<?xml version="1.0" standalone="no"?>
<!DOCTYPE svg PUBLIC "-//W3C//DTD SVG 20010904//EN"
 "http://www.w3.org/TR/2001/REC-SVG-20010904/DTD/svg10.dtd">
<svg version="1.0" xmlns="http://www.w3.org/2000/svg"
 width="700.000000pt" height="700.000000pt" viewBox="0 0 700.000000 700.000000"
 preserveAspectRatio="xMidYMid meet">
<metadata>
Created by potrace 1.14, written by Peter Selinger 2001-2017
</metadata>
<g transform="translate(0.000000,700.000000) scale(0.100000,-0.100000)"
fill="#000000" stroke="none">
<path d="M960 6980 c-496 -93 -870 -481 -950 -985 -11 -70 -9 -4976 2 -5015 4
-14 15 -56 24 -95 19 -78 74 -221 106 -275 64 -107 117 -178 186 -248 140
-143 209 -189 422 -285 40 -18 171 -53 239 -64 62 -11 4952 -10 5018 0 29 5
66 12 83 17 17 5 31 9 33 8 11 -2 102 29 165 56 367 157 634 499 700 896 4 25
7 1161 7 2525 0 2339 -1 2484 -18 2550 -47 188 -104 317 -191 439 -187 259
-434 414 -769 484 -17 3 -1141 7 -2497 8 -2332 2 -2470 1 -2560 -16z m5030
-84 c164 -29 260 -64 416 -154 83 -48 214 -168 279 -257 17 -22 33 -42 36 -45
4 -3 27 -43 52 -90 65 -122 96 -210 123 -355 20 -109 19 -4887 -1 -5000 -62
-347 -277 -636 -590 -792 -59 -30 -192 -76 -250 -87 -16 -4 -41 -10 -55 -14
-14 -3 -1125 -8 -2470 -9 -2526 -2 -2497 -2 -2640 36 -267 72 -515 261 -650
497 -48 84 -96 197 -112 264 -37 156 -37 124 -37 2620 0 1440 3 2441 9 2465 5
22 12 56 15 75 30 180 162 418 306 556 166 156 389 266 594 290 28 4 52 8 54
10 2 2 1094 4 2425 3 1930 0 2436 -3 2496 -13z"/>
<path d="M3328 5795 c-2 -1 -32 -5 -68 -9 -89 -9 -142 -16 -160 -21 -8 -3 -32
-7 -54 -11 -316 -49 -744 -251 -1013 -477 -465 -391 -743 -904 -817 -1505 -13
-100 -14 -443 -2 -517 2 -16 7 -50 11 -75 51 -375 210 -747 457 -1072 69 -90
273 -301 353 -364 27 -21 54 -43 60 -47 222 -175 555 -336 833 -402 9 -3 37
-9 62 -16 60 -14 70 -16 127 -25 26 -3 57 -8 68 -10 115 -23 512 -22 610 1 11
2 36 6 55 9 207 26 495 123 707 236 468 250 845 662 1038 1136 l45 109 0 778
0 778 -36 87 c-310 751 -999 1288 -1794 1398 -24 3 -56 8 -70 10 -30 5 -407
14 -412 9z"/>
</g>
</svg>
